<svg width="44" height="44" viewBox="0 0 44 44" fill="none" xmlns="http://www.w3.org/2000/svg">

<g clip-path="url(#clip0_1_867)">
<path d="M31.995 32.0001V31.9993H32V24.6643C32 21.0759 31.2275 18.3118 27.0325 18.3118C25.0158 18.3118 23.6625 19.4184 23.11 20.4676H23.0517V18.6468H19.0742V31.9993H23.2158V25.3876C23.2158 23.6468 23.5458 21.9634 25.7017 21.9634C27.8258 21.9634 27.8575 23.9501 27.8575 25.4993V32.0001H31.995Z" fill="#AFB1B8"/>
<path d="M12.33 18.6475H16.4767V32H12.33V18.6475Z" fill="#AFB1B8"/>
<path d="M14.4017 12C13.0758 12 12 13.0758 12 14.4017C12 15.7275 13.0758 16.8258 14.4017 16.8258C15.7275 16.8258 16.8033 15.7275 16.8033 14.4017C16.8025 13.0758 15.7267 12 14.4017 12V12Z" fill="#AFB1B8"/>
</g>
<defs>
<clipPath id="clip0_1_867">
<rect width="20" height="20" fill="white" transform="translate(12 12)"/>
</clipPath>
</defs>
</svg>
